<svg width="164" height="38" viewBox="0 0 164 38" fill="none" xmlns="http://www.w3.org/2000/svg">
<g filter="url(#filter0_dd_13001_399)">
<rect x="3.1" y="2.1" width="31.8" height="31.8" rx="7.9" fill="white"/>
<rect x="3.1" y="2.1" width="31.8" height="31.8" rx="7.9" fill="url(#paint0_linear_13001_399)"/>
<rect x="3.1" y="2.1" width="31.8" height="31.8" rx="7.9" stroke="#D0D5DD" stroke-width="0.2"/>
<path d="M18.3546 13.1828C22.7105 11.4504 27.4742 12.8185 29.6373 14.9133C30.106 15.3671 30.5041 15.8275 30.845 16.2852C31.0394 15.2107 31.0552 14.1405 30.8681 13.1055C30.1847 9.32649 26.6195 7.18561 23.4233 8.29149C20.2415 9.3924 19.0005 11.5321 19.0005 11.5321C19.0005 11.5321 17.7595 9.3924 14.5777 8.29149C11.3812 7.18561 7.81603 9.32672 7.1328 13.1055C6.62842 15.8944 7.58356 18.9392 9.61033 21.6298C10.0372 21.7732 10.4847 21.8809 10.9586 21.9431C13.7978 22.3163 14.8184 21.557 16.0178 21.0486C16.8142 20.7113 17.4134 21.0942 17.3843 21.3626C17.3392 21.7786 15.7693 22.4895 16.106 22.6388C17.4351 23.2285 19.0718 23.2334 20.3053 22.18C21.838 20.8712 22.4114 21.7659 22.4114 21.7659C22.4114 21.7659 21.6502 23.7076 19.3581 24.6717C17.4457 25.4761 15.4419 25.6743 13.6107 25.4683C15.19 26.5846 17.0035 27.5204 19.0005 28.1883C24.7099 26.2784 28.9276 22.1871 30.4145 17.9096C29.4072 16.9157 28.1716 16.2996 26.6988 16.0763C23.8674 15.6471 22.8322 16.3863 21.6228 16.8708C20.8198 17.1926 20.2285 16.7978 20.263 16.5299C20.3161 16.1148 21.8999 15.4351 21.5661 15.279C20.249 14.6633 18.6125 14.626 17.3585 15.6549C15.8003 16.9332 15.2446 16.0274 15.2446 16.0274C15.2446 16.0274 16.0438 14.1015 18.3546 13.1828ZM17.2709 18.5052H18.3709V17.4052H19.6296V18.5052H20.7296V19.7639H19.6296V20.8639H18.3709V19.7639H17.2709V18.5052Z" fill="url(#paint1_linear_13001_399)"/>
<path d="M17.2709 18.5052H18.3709V17.4052H19.6296V18.5052H20.7295V19.7639H19.6378C21.2597 20.5834 24.2383 21.8027 27.8177 22.3451C28.9956 20.9517 29.8813 19.4428 30.4143 17.9096C29.4069 16.9157 28.1713 16.2996 26.6986 16.0763C23.8672 15.647 22.8319 16.3863 21.6226 16.8708C20.8196 17.1926 20.2282 16.7978 20.2627 16.5299C20.3159 16.1148 21.8997 15.4351 21.5659 15.279C20.2488 14.6633 18.6123 14.626 17.3583 15.6548C15.8 16.9332 15.2443 16.0274 15.2443 16.0274C15.2443 16.0274 16.0438 14.1013 18.3543 13.1823C22.7102 11.4499 27.4739 12.818 29.637 14.9128C30.1057 15.3666 30.5038 15.8271 30.8447 16.2847C31.0392 15.2102 31.055 14.14 30.8679 13.105C30.1844 9.326 26.6192 7.18512 23.423 8.291C20.2412 9.39191 19.0002 11.5316 19.0002 11.5316C19.0002 11.5316 17.7592 9.39191 14.5774 8.291C12.7519 7.65927 10.8067 8.0883 9.34619 9.27521C10.0323 10.7442 10.836 12.1168 13.1254 14.8773C14.9868 17.1222 17.2709 18.5052 17.2709 18.5052Z" fill="url(#paint2_linear_13001_399)"/>
<path opacity="0.31" d="M27.277 9.64954C24.2712 8.13944 21.169 10.4892 20.1851 11.7299C21.882 11.3725 23.3668 11.1892 25.2457 11.5839C28.0252 12.1679 29.0654 13.1715 30.3064 14.6542C30.0871 11.9069 28.3519 10.1896 27.277 9.64954Z" fill="url(#paint3_linear_13001_399)"/>
</g>
<path d="M46.464 32.8V14.944H49.416V17.536L49.128 16.888C49.576 16.184 50.184 15.64 50.952 15.256C51.72 14.856 52.608 14.656 53.616 14.656C54.848 14.656 55.96 14.96 56.952 15.568C57.944 16.176 58.728 16.992 59.304 18.016C59.896 19.04 60.192 20.192 60.192 21.472C60.192 22.736 59.904 23.888 59.328 24.928C58.752 25.968 57.968 26.792 56.976 27.4C55.984 27.992 54.856 28.288 53.592 28.288C52.648 28.288 51.776 28.104 50.976 27.736C50.192 27.352 49.568 26.808 49.104 26.104L49.608 25.48V32.8H46.464ZM53.232 25.408C53.952 25.408 54.592 25.24 55.152 24.904C55.712 24.568 56.144 24.104 56.448 23.512C56.768 22.92 56.928 22.24 56.928 21.472C56.928 20.704 56.768 20.032 56.448 19.456C56.144 18.864 55.712 18.4 55.152 18.064C54.592 17.712 53.952 17.536 53.232 17.536C52.544 17.536 51.92 17.704 51.36 18.04C50.816 18.376 50.384 18.848 50.064 19.456C49.76 20.048 49.608 20.72 49.608 21.472C49.608 22.24 49.76 22.92 50.064 23.512C50.384 24.104 50.816 24.568 51.36 24.904C51.92 25.24 52.544 25.408 53.232 25.408ZM62.589 28V9.832H65.733V17.512L65.301 17.056C65.605 16.272 66.101 15.68 66.789 15.28C67.493 14.864 68.309 14.656 69.237 14.656C70.197 14.656 71.045 14.864 71.781 15.28C72.533 15.696 73.117 16.28 73.533 17.032C73.949 17.768 74.157 18.624 74.157 19.6V28H71.013V20.344C71.013 19.768 70.901 19.272 70.677 18.856C70.453 18.44 70.141 18.12 69.741 17.896C69.357 17.656 68.901 17.536 68.373 17.536C67.861 17.536 67.405 17.656 67.005 17.896C66.605 18.12 66.293 18.44 66.069 18.856C65.845 19.272 65.733 19.768 65.733 20.344V28H62.589ZM78.1652 33.304C77.8132 33.304 77.4692 33.272 77.1332 33.208C76.7972 33.16 76.4932 33.072 76.2212 32.944V30.304C76.4292 30.352 76.6772 30.4 76.9652 30.448C77.2692 30.496 77.5492 30.52 77.8052 30.52C78.5252 30.52 79.0452 30.352 79.3652 30.016C79.7012 29.68 79.9972 29.24 80.2532 28.696L81.1172 26.68L81.0692 29.32L75.3812 14.944H78.7652L82.7492 25.552H81.5492L85.5092 14.944H88.9172L83.2292 29.32C82.8932 30.168 82.4852 30.888 82.0052 31.48C81.5252 32.072 80.9652 32.52 80.3252 32.824C79.7012 33.144 78.9812 33.304 78.1652 33.304ZM95.6117 28.288C94.2197 28.288 93.0037 27.96 91.9637 27.304C90.9397 26.632 90.2357 25.728 89.8517 24.592L92.2037 23.464C92.5397 24.2 93.0037 24.776 93.5957 25.192C94.2037 25.608 94.8757 25.816 95.6117 25.816C96.1877 25.816 96.6437 25.688 96.9797 25.432C97.3157 25.176 97.4837 24.84 97.4837 24.424C97.4837 24.168 97.4117 23.96 97.2677 23.8C97.1397 23.624 96.9557 23.48 96.7157 23.368C96.4917 23.24 96.2437 23.136 95.9717 23.056L93.8357 22.456C92.7317 22.136 91.8917 21.648 91.3157 20.992C90.7557 20.336 90.4757 19.56 90.4757 18.664C90.4757 17.864 90.6757 17.168 91.0757 16.576C91.4917 15.968 92.0597 15.496 92.7797 15.16C93.5157 14.824 94.3557 14.656 95.2997 14.656C96.5317 14.656 97.6197 14.952 98.5637 15.544C99.5077 16.136 100.18 16.968 100.58 18.04L98.1797 19.168C97.9557 18.576 97.5797 18.104 97.0517 17.752C96.5237 17.4 95.9317 17.224 95.2757 17.224C94.7477 17.224 94.3317 17.344 94.0277 17.584C93.7237 17.824 93.5717 18.136 93.5717 18.52C93.5717 18.76 93.6357 18.968 93.7637 19.144C93.8917 19.32 94.0677 19.464 94.2917 19.576C94.5317 19.688 94.8037 19.792 95.1077 19.888L97.1957 20.512C98.2677 20.832 99.0917 21.312 99.6677 21.952C100.26 22.592 100.556 23.376 100.556 24.304C100.556 25.088 100.348 25.784 99.9317 26.392C99.5157 26.984 98.9397 27.448 98.2037 27.784C97.4677 28.12 96.6037 28.288 95.6117 28.288ZM102.972 28V14.944H106.116V28H102.972ZM102.972 13.48V10.12H106.116V13.48H102.972ZM109.019 28V9.832H112.163V28H109.019ZM115.066 28V14.944H118.21V28H115.066ZM115.066 13.48V10.12H118.21V13.48H115.066ZM121.112 28V14.944H124.064V17.512L123.824 17.056C124.128 16.272 124.624 15.68 125.312 15.28C126.016 14.864 126.832 14.656 127.76 14.656C128.72 14.656 129.568 14.864 130.304 15.28C131.056 15.696 131.64 16.28 132.056 17.032C132.472 17.768 132.68 18.624 132.68 19.6V28H129.536V20.344C129.536 19.768 129.424 19.272 129.2 18.856C128.976 18.44 128.664 18.12 128.264 17.896C127.88 17.656 127.424 17.536 126.896 17.536C126.384 17.536 125.928 17.656 125.528 17.896C125.128 18.12 124.816 18.44 124.592 18.856C124.368 19.272 124.256 19.768 124.256 20.344V28H121.112ZM135.339 28V9.832H138.483V21.736L137.283 21.376L143.427 14.944H147.339L142.515 20.2L147.435 28H143.835L139.563 21.232L141.435 20.848L137.499 25.072L138.483 23.152V28H135.339Z" fill="white"/>
<defs>
<filter id="filter0_dd_13001_399" x="0" y="0" width="38" height="38" filterUnits="userSpaceOnUse" color-interpolation-filters="sRGB">
<feFlood flood-opacity="0" result="BackgroundImageFix"/>
<feColorMatrix in="SourceAlpha" type="matrix" values="0 0 0 0 0 0 0 0 0 0 0 0 0 0 0 0 0 0 127 0" result="hardAlpha"/>
<feOffset dy="1"/>
<feGaussianBlur stdDeviation="1"/>
<feColorMatrix type="matrix" values="0 0 0 0 0.0627451 0 0 0 0 0.0941176 0 0 0 0 0.156863 0 0 0 0.06 0"/>
<feBlend mode="normal" in2="BackgroundImageFix" result="effect1_dropShadow_13001_399"/>
<feColorMatrix in="SourceAlpha" type="matrix" values="0 0 0 0 0 0 0 0 0 0 0 0 0 0 0 0 0 0 127 0" result="hardAlpha"/>
<feOffset dy="1"/>
<feGaussianBlur stdDeviation="1.5"/>
<feColorMatrix type="matrix" values="0 0 0 0 0.0627451 0 0 0 0 0.0941176 0 0 0 0 0.156863 0 0 0 0.1 0"/>
<feBlend mode="normal" in2="effect1_dropShadow_13001_399" result="effect2_dropShadow_13001_399"/>
<feBlend mode="normal" in="SourceGraphic" in2="effect2_dropShadow_13001_399" result="shape"/>
</filter>
<linearGradient id="paint0_linear_13001_399" x1="19" y1="2" x2="19" y2="34" gradientUnits="userSpaceOnUse">
<stop stop-color="white"/>
<stop offset="1" stop-color="#D0D5DD"/>
</linearGradient>
<linearGradient id="paint1_linear_13001_399" x1="10.1989" y1="24.2137" x2="27.8347" y2="6.57791" gradientUnits="userSpaceOnUse">
<stop stop-color="#0076C1"/>
<stop offset="0.0737" stop-color="#0B82C6"/>
<stop offset="0.2766" stop-color="#269ED3"/>
<stop offset="0.4546" stop-color="#36AFDA"/>
<stop offset="0.587" stop-color="#3CB5DD"/>
</linearGradient>
<linearGradient id="paint2_linear_13001_399" x1="10.1388" y1="24.2537" x2="27.8274" y2="6.56509" gradientUnits="userSpaceOnUse">
<stop stop-color="#00A482"/>
<stop offset="1" stop-color="#79DD83"/>
</linearGradient>
<linearGradient id="paint3_linear_13001_399" x1="24.8608" y1="13.5073" x2="28.5288" y2="10.1132" gradientUnits="userSpaceOnUse">
<stop stop-color="#00A482"/>
<stop offset="1" stop-color="#79DD83"/>
</linearGradient>
</defs>
</svg>
